<svg xmlns="http://www.w3.org/2000/svg" xmlns:xlink="http://www.w3.org/1999/xlink" width="300" zoomAndPan="magnify" viewBox="0 0 224.87999 225" height="300" preserveAspectRatio="xMidYMid meet" version="1.0"><defs><clipPath id="bce6b6a703"><path d="M 1.371094 1.429688 L 223.253906 1.429688 L 223.253906 223.3125 L 1.371094 223.3125 Z M 1.371094 1.429688 " clip-rule="nonzero"/></clipPath></defs><g clip-path="url(#bce6b6a703)"><path fill="#ef7c8e" d="M 112.433594 1.429688 C 51.101562 1.429688 1.371094 51.160156 1.371094 112.496094 C 1.371094 173.828125 51.101562 223.558594 112.433594 223.558594 C 173.769531 223.558594 223.5 173.828125 223.5 112.496094 C 223.5 51.160156 173.769531 1.429688 112.433594 1.429688 Z M 165.253906 119.039062 L 128.234375 156.058594 C 126.429688 157.863281 124.058594 158.773438 121.691406 158.773438 C 119.320312 158.773438 116.953125 157.863281 115.148438 156.058594 C 111.527344 152.441406 111.527344 146.589844 115.148438 142.972656 L 136.371094 121.75 L 66.160156 121.75 C 61.050781 121.75 56.902344 117.613281 56.902344 112.496094 C 56.902344 107.375 61.050781 103.238281 66.160156 103.238281 L 136.371094 103.238281 L 115.148438 82.015625 C 111.527344 78.398438 111.527344 72.550781 115.148438 68.929688 C 118.765625 65.3125 124.613281 65.3125 128.234375 68.929688 L 165.253906 105.953125 C 168.875 109.570312 168.875 115.417969 165.253906 119.039062 Z M 165.253906 119.039062 " fill-opacity="1" fill-rule="nonzero"/></g></svg>